<mxfile host="app.diagrams.net" modified="2023-12-06T01:02:03.353Z" agent="Mozilla/5.0 (X11; Ubuntu; Linux x86_64; rv:120.0) Gecko/20100101 Firefox/120.0" etag="ncZXes5gIsBNGlGjUbhe" version="22.1.5" type="github">
  <diagram name="Page-1" id="cd6ngPBctM1b4x5j1UEm">
    <mxGraphModel dx="1434" dy="886" grid="1" gridSize="10" guides="1" tooltips="1" connect="1" arrows="1" fold="1" page="1" pageScale="1" pageWidth="850" pageHeight="1100" math="0" shadow="0">
      <root>
        <mxCell id="0" />
        <mxCell id="1" parent="0" />
        <mxCell id="-O1dZ17A0FK6lx6eKpMr-1" value="&lt;div&gt;CONV 2&lt;/div&gt;&lt;div&gt;64 filters&lt;br&gt;&lt;/div&gt;" style="whiteSpace=wrap;html=1;aspect=fixed;" vertex="1" parent="1">
          <mxGeometry x="30" y="310" width="50" height="50" as="geometry" />
        </mxCell>
        <mxCell id="-O1dZ17A0FK6lx6eKpMr-2" value="&lt;div&gt;CONV 2&lt;/div&gt;&lt;div&gt;128 filters&lt;br&gt;&lt;/div&gt;" style="whiteSpace=wrap;html=1;aspect=fixed;" vertex="1" parent="1">
          <mxGeometry x="100" y="350" width="50" height="50" as="geometry" />
        </mxCell>
        <mxCell id="-O1dZ17A0FK6lx6eKpMr-3" value="&lt;div&gt;CONV 3&lt;br&gt;&lt;/div&gt;&lt;div&gt;256 filters&lt;br&gt;&lt;/div&gt;" style="whiteSpace=wrap;html=1;aspect=fixed;" vertex="1" parent="1">
          <mxGeometry x="170" y="400" width="50" height="50" as="geometry" />
        </mxCell>
        <mxCell id="-O1dZ17A0FK6lx6eKpMr-4" value="&lt;div&gt;CONV 3&lt;br&gt;&lt;/div&gt;&lt;div&gt;512 filters&lt;br&gt;&lt;/div&gt;" style="whiteSpace=wrap;html=1;aspect=fixed;" vertex="1" parent="1">
          <mxGeometry x="250" y="440" width="50" height="50" as="geometry" />
        </mxCell>
        <mxCell id="-O1dZ17A0FK6lx6eKpMr-14" value="" style="edgeStyle=orthogonalEdgeStyle;rounded=0;orthogonalLoop=1;jettySize=auto;html=1;fillColor=#dae8fc;strokeColor=#6c8ebf;entryX=0;entryY=0.5;entryDx=0;entryDy=0;" edge="1" parent="1" source="-O1dZ17A0FK6lx6eKpMr-5" target="-O1dZ17A0FK6lx6eKpMr-12">
          <mxGeometry relative="1" as="geometry">
            <mxPoint x="435" y="495" as="targetPoint" />
          </mxGeometry>
        </mxCell>
        <mxCell id="-O1dZ17A0FK6lx6eKpMr-5" value="&lt;div&gt;CONV 3&lt;br&gt;&lt;/div&gt;&lt;div&gt;512 filters&lt;br&gt;&lt;/div&gt;" style="whiteSpace=wrap;html=1;aspect=fixed;" vertex="1" parent="1">
          <mxGeometry x="320" y="470" width="50" height="50" as="geometry" />
        </mxCell>
        <mxCell id="-O1dZ17A0FK6lx6eKpMr-8" value="&lt;div&gt;CONV&lt;/div&gt;&lt;div&gt;1024 filters&lt;br&gt;&lt;/div&gt;" style="rounded=0;whiteSpace=wrap;html=1;" vertex="1" parent="1">
          <mxGeometry x="380" y="535" width="70" height="30" as="geometry" />
        </mxCell>
        <mxCell id="-O1dZ17A0FK6lx6eKpMr-11" value="&lt;div&gt;CONV&lt;/div&gt;&lt;div&gt;512 filters&lt;br&gt;&lt;/div&gt;" style="rounded=0;whiteSpace=wrap;html=1;" vertex="1" parent="1">
          <mxGeometry x="470" y="535" width="60" height="30" as="geometry" />
        </mxCell>
        <mxCell id="-O1dZ17A0FK6lx6eKpMr-12" value="&lt;div&gt;UP&lt;br&gt;&lt;/div&gt;&lt;div&gt;1024&lt;br&gt;&lt;/div&gt;" style="whiteSpace=wrap;html=1;aspect=fixed;" vertex="1" parent="1">
          <mxGeometry x="510" y="470" width="50" height="50" as="geometry" />
        </mxCell>
        <mxCell id="-O1dZ17A0FK6lx6eKpMr-15" value="" style="edgeStyle=orthogonalEdgeStyle;rounded=0;orthogonalLoop=1;jettySize=auto;html=1;fillColor=#dae8fc;strokeColor=#6c8ebf;entryX=0.75;entryY=1;entryDx=0;entryDy=0;exitX=1;exitY=0.5;exitDx=0;exitDy=0;" edge="1" parent="1" source="-O1dZ17A0FK6lx6eKpMr-11" target="-O1dZ17A0FK6lx6eKpMr-12">
          <mxGeometry relative="1" as="geometry">
            <mxPoint x="600" y="620" as="sourcePoint" />
            <mxPoint x="740" y="620" as="targetPoint" />
          </mxGeometry>
        </mxCell>
      </root>
    </mxGraphModel>
  </diagram>
</mxfile>
